<svg width="1774" height="500" viewBox="0 0 1774 500" fill="none" xmlns="http://www.w3.org/2000/svg">
<path d="M1422.75 397.287C1408.41 397.287 1399.48 381.692 1406.71 369.274L1558.17 108.949C1561.73 102.842 1568.25 99.0859 1575.3 99.0859H1602.09C1609.15 99.0859 1615.67 102.841 1619.22 108.949L1770.69 369.274C1777.91 381.692 1768.98 397.287 1754.64 397.287C1747.84 397.287 1741.59 393.563 1738.33 387.579L1706.44 328.972C1706.44 328.958 1706.42 328.949 1706.41 328.949C1706.39 328.949 1706.38 328.941 1706.37 328.928L1687.8 297.909C1687.8 297.899 1687.81 297.886 1687.82 297.886C1687.83 297.886 1687.84 297.874 1687.83 297.865L1605.91 154.142C1598.3 140.787 1579.09 140.787 1571.48 154.142L1489.57 297.862C1489.56 297.873 1489.57 297.886 1489.58 297.886C1489.59 297.886 1489.6 297.9 1489.59 297.911L1471.39 328.806C1471.33 328.895 1471.24 328.949 1471.13 328.949C1471.03 328.949 1470.93 329.007 1470.88 329.101L1439.06 387.579C1435.81 393.563 1429.55 397.287 1422.75 397.287Z" fill="#041C14"/>
<path d="M1373.91 283.811C1366.05 283.811 1359.25 288.995 1356.08 296.18C1338.32 336.458 1298.03 364.574 1251.18 364.574C1187.9 364.574 1136.6 313.271 1136.6 249.987C1136.6 186.703 1187.9 135.401 1251.18 135.401C1298.15 135.401 1338.51 163.653 1356.21 204.089C1359.36 211.299 1366.18 216.509 1374.05 216.509C1385.55 216.509 1394.08 205.764 1389.85 195.077C1367.98 139.904 1314.14 100.887 1251.18 100.887C1168.84 100.887 1102.08 167.641 1102.08 249.987C1102.08 332.333 1168.84 399.088 1251.18 399.088C1313.99 399.088 1367.73 360.253 1389.69 305.287C1393.97 294.591 1385.42 283.811 1373.91 283.811Z" fill="#041C14"/>
<path d="M1009.76 396.007C999.535 396.007 991.248 387.699 991.248 377.45V117.644C991.248 107.394 999.535 99.0859 1009.76 99.0859C1019.98 99.0859 1028.27 107.394 1028.27 117.644V377.45C1028.27 387.699 1019.98 396.007 1009.76 396.007Z" fill="#041C14"/>
<path d="M1008.48 360.639H947.991C937.742 360.639 929.434 368.926 929.434 379.149C929.434 389.372 937.742 397.659 947.991 397.659H1008.48V360.639Z" fill="#041C14"/>
<path d="M1005.04 397.659H1070.33C1080.58 397.659 1088.89 389.372 1088.89 379.149C1088.89 368.926 1080.58 360.639 1070.33 360.639H1005.04V397.659Z" fill="#041C14"/>
<path fill-rule="evenodd" clip-rule="evenodd" d="M882.919 182.382C882.919 175.819 881.627 169.32 879.115 163.257C876.604 157.193 872.922 151.683 868.281 147.043C863.64 142.402 858.131 138.72 852.067 136.209C846.009 133.699 839.517 132.407 832.959 132.404C832.954 132.404 832.948 132.404 832.942 132.404L691.338 132.404C682.137 132.404 674.679 124.946 674.679 115.745C674.679 106.545 682.137 99.0859 691.338 99.0859L832.942 99.0859C832.949 99.0859 832.957 99.0859 832.965 99.0859H833.773L833.775 99.088L833.777 99.0901C844.431 99.1969 854.969 101.347 864.818 105.426C874.924 109.613 884.106 115.748 891.841 123.483C899.576 131.218 905.711 140.4 909.897 150.506C914.083 160.612 916.238 171.444 916.238 182.382C916.238 193.321 914.083 204.152 909.897 214.258C905.711 224.364 899.576 233.547 891.841 241.282C884.106 249.016 874.924 255.152 864.818 259.338C854.969 263.417 844.431 265.568 833.777 265.674L833.775 265.676L833.773 265.679H739.65C733.087 265.679 726.588 266.971 720.524 269.483C714.461 271.995 708.951 275.676 704.31 280.317C699.669 284.958 695.988 290.467 693.476 296.531C690.965 302.594 689.672 309.093 689.672 315.656V380.627C689.672 389.828 682.213 397.287 673.013 397.287C663.812 397.287 656.354 389.828 656.354 380.627V314.825L656.356 314.823L656.358 314.821C656.465 304.167 658.615 293.629 662.694 283.78C666.88 273.674 673.016 264.492 680.75 256.757C688.485 249.022 697.668 242.887 707.774 238.701C717.622 234.621 728.16 232.471 738.815 232.364L738.817 232.362L738.819 232.36H832.942C839.505 232.36 846.004 231.067 852.067 228.556C858.131 226.044 863.64 222.363 868.281 217.722C872.922 213.081 876.604 207.572 879.115 201.508C881.627 195.444 882.919 188.945 882.919 182.382Z" fill="#041C14"/>
<path fill-rule="evenodd" clip-rule="evenodd" d="M292.106 498.215C376.299 485.605 446.626 435.089 484.879 359.747C501.344 327.317 509.621 295.291 511.912 255.132L512.744 240.545L445.295 240.545C408.198 240.545 377.831 240.946 377.814 241.438C377.797 241.93 377.265 247.66 376.633 254.172C372.427 297.422 346.513 334.095 307.112 352.56C271.933 369.044 228.61 367.049 195.137 347.4C172.308 334 153.168 311.147 143.779 286.084C139.491 274.632 136.109 259.894 136.109 252.652C136.109 250.087 135.775 246.313 135.365 244.266L134.621 240.545L-0.000755104 240.545L0.810159 255.132C4.59339 323.202 31.1986 382.882 77.9322 428.129C117.771 466.7 168.185 491.219 222.22 498.302C239.775 500.603 276.464 500.557 292.106 498.215ZM511.216 227.446L376.654 227.446L376.654 233.4L511.216 233.4L511.216 227.446ZM136.109 227.446L1.54731 227.446L1.54731 233.4L136.109 233.4L136.109 227.446ZM509.43 214.942L374.105 214.327L374.868 219.705L510.193 220.321L509.43 214.942ZM138.491 218.063C138.491 216.026 137.075 215.753 122.713 215.022C103.027 214.021 2.7381 214.599 2.7381 215.714C2.7381 216.165 2.41303 217.381 2.0153 218.417C1.36154 220.121 7.82768 220.301 69.8918 220.301C136.23 220.301 138.491 220.227 138.491 218.063ZM508.835 202.439L439.64 202.439C377.033 202.439 370.514 202.618 371.168 204.322C371.566 205.359 371.891 206.698 371.891 207.3C371.891 207.951 399.575 208.393 440.363 208.393L508.835 208.393L508.835 202.439ZM141.69 206.309C142.097 205.163 142.648 203.824 142.913 203.332C143.178 202.84 112.015 202.439 73.6619 202.439L3.92893 202.439L3.92893 208.393L72.4377 208.393C136.608 208.393 140.994 208.261 141.69 206.309ZM505.858 189.935L364.816 189.321L366.805 194.698L506.621 195.313L505.858 189.935ZM146.589 193.865C151.11 189.343 150.555 189.31 77.4618 189.628L6.90598 189.935L6.14505 195.294L75.6517 195.294C128.126 195.294 145.51 194.944 146.589 193.865ZM503.314 180.409C502.913 179.099 502.391 177.811 502.153 177.547C501.269 176.563 373.364 176.087 365.583 177.037C358.175 177.942 357.619 178.202 359.034 180.089C360.464 181.999 365.884 182.176 432.311 182.471C503.567 182.788 504.039 182.775 503.314 180.409ZM153.733 180.766C158.366 176.134 158.085 176.117 82.9562 176.484L10.7499 176.836L8.76844 182.195L80.5364 182.195C134.769 182.195 152.653 181.846 153.733 180.766ZM500.031 168.403C499.633 167.367 499.308 166.027 499.308 165.426C499.308 164.773 468.819 164.333 423.691 164.333C382.102 164.333 348.075 164.785 348.075 165.339C348.075 165.892 349.055 167.232 350.253 168.316C352.229 170.106 359.254 170.287 426.592 170.287C493.729 170.287 500.685 170.108 500.031 168.403ZM165.926 164.928L91.1788 164.62C50.0683 164.449 15.7621 164.567 14.944 164.879C14.1247 165.192 13.4554 166.537 13.4554 167.868C13.4554 170.274 13.8663 170.287 87.8135 170.287L162.173 170.287L165.926 164.928ZM495.268 155.304C494.87 154.268 494.545 152.928 494.545 152.327C494.545 151.674 462.103 151.234 413.958 151.234L333.369 151.234L338.964 157.188L417.477 157.188C488.581 157.188 495.923 157.01 495.268 155.304ZM176.729 154.938C179.504 152.691 179.496 152.689 167.037 151.896C160.178 151.459 124.023 151.266 86.6906 151.466L18.8141 151.829L18.0532 157.188L96.0028 157.188C170.645 157.188 174.069 157.092 176.729 154.938ZM482.214 144.336C489.997 144.02 490.671 143.79 490.114 141.657C489.515 139.368 487.899 139.327 401.224 139.378L312.946 139.43L317.709 142C322.442 144.553 322.953 144.57 398.089 144.627C439.678 144.658 477.534 144.528 482.214 144.336ZM199.818 139.433L112.123 139.379C19.2761 139.322 22.982 139.123 22.982 144.186C22.982 144.84 56.3558 145.258 106.041 145.226L189.101 145.172L199.818 139.433ZM482.254 126.226L379.242 126.226C322.584 126.226 276.466 126.463 276.755 126.753C277.045 127.043 282.334 128.383 288.509 129.73C299.302 132.086 303.302 132.181 392.351 132.181L484.967 132.181L482.254 126.226ZM226.016 129.343L235.543 126.822L133.728 126.513C39.0651 126.227 31.8083 126.348 30.4246 128.229C29.6053 129.343 28.936 130.687 28.936 131.217C28.936 131.747 71.135 132.109 122.713 132.022C214.167 131.869 216.725 131.803 226.016 129.343ZM476.683 116.7C475.416 114.331 474.189 114.318 256.468 114.318C57.9205 114.318 37.4587 114.493 36.8038 116.202C36.406 117.238 36.0809 118.31 36.0809 118.584C36.0809 118.858 135.503 119.082 257.019 119.082C477.588 119.082 477.956 119.078 476.683 116.7ZM466.27 101.815L47.0769 101.212L43.171 107.173L469.828 107.173L466.27 101.815ZM460.011 93.9613C460.011 93.5719 459.067 92.3978 457.912 91.3534C456.011 89.6327 437.049 89.4302 256.484 89.2004L57.156 88.948L52.9881 94.6699L256.5 94.6699C368.432 94.6698 460.011 94.3507 460.011 93.9613ZM449.294 81.1934C449.294 80.6218 448.314 79.2667 447.116 78.183C445.109 76.367 430.141 76.2122 256.032 76.2122C70.4848 76.2122 67.104 76.2527 65.893 78.5153C65.2154 79.7823 64.6605 81.091 64.6605 81.4232C64.6605 81.7566 151.203 82.0746 256.977 82.1305C365.79 82.1877 449.294 81.7816 449.294 81.1934ZM436.195 67.9444C436.195 67.3263 435.004 65.9867 433.548 64.9673C431.183 63.3097 412.429 63.1132 256.587 63.1132L82.2715 63.1133L75.1956 69.0673L255.695 69.0673C368 69.0673 436.195 68.6434 436.195 67.9444ZM417.917 51.2051L96.2171 51.2909L89.0722 57.1473L423.512 57.1592L417.917 51.2051ZM404.634 42.861C401.695 38.1061 403.471 38.1621 255.602 38.1692L114.079 38.1752L106.934 44.0483L256.154 44.0542C356.035 44.0578 405.129 43.6636 404.634 42.861ZM384.99 31.3613C384.99 31.1684 382.877 29.9323 380.296 28.6141C375.685 26.2622 373.44 26.2194 255.842 26.186C138.866 26.1539 135.981 26.2087 131.632 28.5046L127.178 30.8564L243.283 31.0958C307.14 31.2267 365.147 31.4197 372.189 31.5245C379.23 31.6281 384.99 31.5542 384.99 31.3613ZM358.792 18.5053C358.792 18.204 355.253 16.8643 350.927 15.5282C343.314 13.1775 340.265 13.099 256.382 13.099C172.498 13.099 169.45 13.1776 161.837 15.5282C157.511 16.8643 153.972 18.204 153.972 18.5053C153.972 18.8066 200.056 19.0531 256.382 19.0531C312.707 19.0531 358.792 18.8065 358.792 18.5053ZM314.136 4.14525C300.771 1.20989 283.913 2.0005e-05 256.382 2.24119e-05C228.85 2.48188e-05 211.993 1.2099 198.627 4.14526C192.405 5.51232 199.86 5.71475 256.382 5.71474C312.904 5.71474 320.358 5.51231 314.136 4.14525Z" fill="#041C14"/>
</svg>
