<svg width="1774" height="500" viewBox="0 0 1774 500" fill="none" xmlns="http://www.w3.org/2000/svg">
<path d="M1422.76 397.302C1408.42 397.302 1399.49 381.708 1406.71 369.29L1558.18 108.965C1561.73 102.857 1568.25 99.1016 1575.31 99.1016H1602.1C1609.15 99.1016 1615.67 102.857 1619.23 108.965L1770.69 369.29C1777.92 381.708 1768.99 397.302 1754.65 397.302C1747.85 397.302 1741.59 393.579 1738.34 387.595L1706.45 328.988C1706.44 328.973 1706.43 328.965 1706.41 328.965C1706.4 328.965 1706.38 328.957 1706.37 328.943L1687.81 297.924C1687.8 297.915 1687.81 297.902 1687.82 297.902C1687.83 297.902 1687.84 297.89 1687.84 297.88L1605.92 154.158C1598.31 140.802 1579.1 140.802 1571.49 154.158L1489.57 297.877C1489.57 297.888 1489.57 297.902 1489.59 297.902C1489.6 297.902 1489.61 297.916 1489.6 297.927L1471.39 328.821C1471.34 328.91 1471.24 328.965 1471.14 328.965C1471.03 328.965 1470.94 329.023 1470.89 329.117L1439.07 387.595C1435.81 393.579 1429.56 397.302 1422.76 397.302Z" fill="white"/>
<path d="M1373.91 283.826C1366.06 283.826 1359.25 289.011 1356.08 296.196C1338.32 336.474 1298.04 364.589 1251.19 364.589C1187.91 364.589 1136.6 313.287 1136.6 250.003C1136.6 186.718 1187.91 135.416 1251.19 135.416C1298.15 135.416 1338.52 163.669 1356.21 204.105C1359.37 211.315 1366.19 216.524 1374.06 216.524C1385.55 216.524 1394.09 205.78 1389.85 195.092C1367.99 139.92 1314.15 100.902 1251.19 100.902C1168.84 100.902 1102.09 167.657 1102.09 250.003C1102.09 332.349 1168.84 399.103 1251.19 399.103C1314 399.103 1367.73 360.269 1389.7 305.302C1393.97 294.606 1385.43 283.826 1373.91 283.826Z" fill="white"/>
<path d="M1009.76 396.023C999.541 396.023 991.254 387.714 991.254 377.465V117.659C991.254 107.41 999.541 99.1016 1009.76 99.1016C1019.99 99.1016 1028.27 107.41 1028.27 117.659V377.465C1028.27 387.714 1019.99 396.023 1009.76 396.023Z" fill="white"/>
<path d="M1008.48 360.655H947.997C937.748 360.655 929.439 368.942 929.439 379.165C929.439 389.387 937.748 397.675 947.997 397.675H1008.48V360.655Z" fill="white"/>
<path d="M1005.04 397.675H1070.34C1080.59 397.675 1088.9 389.387 1088.9 379.165C1088.9 368.942 1080.59 360.655 1070.34 360.655H1005.04V397.675Z" fill="white"/>
<path fill-rule="evenodd" clip-rule="evenodd" d="M882.925 182.398C882.925 175.835 881.633 169.336 879.121 163.272C876.609 157.209 872.928 151.699 868.287 147.058C863.646 142.417 858.137 138.736 852.073 136.224C846.015 133.715 839.522 132.422 832.965 132.42C832.959 132.42 832.953 132.42 832.948 132.42L691.344 132.42C682.143 132.42 674.685 124.961 674.685 115.761C674.685 106.56 682.143 99.1016 691.344 99.1016L832.948 99.1016C832.955 99.1016 832.963 99.1016 832.971 99.1016H833.778L833.78 99.1037L833.783 99.1057C844.437 99.2126 854.975 101.363 864.824 105.442C874.93 109.628 884.112 115.764 891.847 123.498C899.582 131.233 905.717 140.416 909.903 150.522C914.089 160.628 916.244 171.459 916.244 182.398C916.244 193.337 914.089 204.168 909.903 214.274C905.717 224.38 899.582 233.562 891.847 241.297C884.112 249.032 874.93 255.168 864.824 259.354C854.975 263.433 844.437 265.583 833.783 265.69L833.78 265.692L833.778 265.694H739.656C733.093 265.694 726.594 266.987 720.53 269.499C714.466 272.01 708.957 275.691 704.316 280.332C699.675 284.973 695.994 290.483 693.482 296.546C690.971 302.61 689.678 309.109 689.678 315.672V380.643C689.678 389.844 682.219 397.302 673.019 397.302C663.818 397.302 656.359 389.844 656.359 380.643V314.841L656.361 314.839L656.364 314.837C656.47 304.182 658.62 293.645 662.7 283.796C666.886 273.69 673.022 264.507 680.756 256.773C688.491 249.038 697.674 242.902 707.78 238.716C717.628 234.637 728.166 232.487 738.821 232.38L738.823 232.378L738.825 232.376H832.948C839.511 232.376 846.01 231.083 852.073 228.571C858.137 226.06 863.646 222.378 868.287 217.738C872.928 213.097 876.609 207.587 879.121 201.524C881.633 195.46 882.925 188.961 882.925 182.398Z" fill="white"/>
<path fill-rule="evenodd" clip-rule="evenodd" d="M292.106 498.215C376.299 485.605 446.627 435.089 484.879 359.747C501.344 327.317 509.621 295.291 511.912 255.132L512.744 240.545L445.295 240.545C408.198 240.545 377.831 240.946 377.814 241.438C377.797 241.93 377.265 247.66 376.633 254.172C372.427 297.422 346.513 334.095 307.112 352.56C271.933 369.044 228.61 367.049 195.137 347.4C172.308 334 153.168 311.147 143.78 286.084C139.491 274.632 136.109 259.894 136.109 252.652C136.109 250.087 135.775 246.313 135.365 244.266L134.621 240.545L-0.000698029 240.545L0.810209 255.132C4.59342 323.202 31.1987 382.882 77.9322 428.129C117.771 466.7 168.185 491.219 222.22 498.302C239.775 500.603 276.464 500.557 292.106 498.215ZM511.216 227.446L376.654 227.446L376.654 233.4L511.216 233.4L511.216 227.446ZM136.109 227.446L1.54735 227.446L1.54735 233.4L136.109 233.4L136.109 227.446ZM509.43 214.942L374.105 214.327L374.868 219.705L510.193 220.321L509.43 214.942ZM138.491 218.063C138.491 216.026 137.075 215.753 122.713 215.022C103.027 214.02 2.73817 214.599 2.73817 215.714C2.73817 216.165 2.41308 217.381 2.01535 218.417C1.36159 220.121 7.82772 220.301 69.8918 220.301C136.23 220.301 138.491 220.227 138.491 218.063ZM508.835 202.439L439.64 202.439C377.033 202.439 370.514 202.618 371.168 204.322C371.566 205.358 371.891 206.698 371.891 207.299C371.891 207.951 399.575 208.393 440.363 208.393L508.835 208.393L508.835 202.439ZM141.69 206.309C142.097 205.163 142.648 203.824 142.913 203.332C143.178 202.84 112.015 202.439 73.662 202.439L3.92898 202.439L3.92898 208.393L72.4378 208.393C136.608 208.393 140.994 208.261 141.69 206.309ZM505.858 189.935L364.816 189.321L366.805 194.698L506.621 195.313L505.858 189.935ZM146.589 193.865C151.11 189.343 150.555 189.31 77.4618 189.628L6.90602 189.935L6.14512 195.294L75.6518 195.294C128.126 195.294 145.51 194.944 146.589 193.865ZM503.314 180.409C502.913 179.099 502.391 177.811 502.153 177.547C501.269 176.563 373.364 176.087 365.583 177.037C358.175 177.942 357.619 178.202 359.034 180.089C360.464 181.999 365.884 182.176 432.311 182.471C503.567 182.788 504.039 182.775 503.314 180.409ZM153.734 180.766C158.366 176.133 158.085 176.117 82.9563 176.484L10.75 176.836L8.76849 182.195L80.5365 182.195C134.769 182.195 152.653 181.846 153.734 180.766ZM500.031 168.403C499.633 167.367 499.308 166.027 499.308 165.426C499.308 164.773 468.819 164.333 423.691 164.333C382.102 164.333 348.075 164.785 348.075 165.339C348.075 165.892 349.055 167.232 350.253 168.316C352.229 170.106 359.254 170.287 426.592 170.287C493.729 170.287 500.685 170.108 500.031 168.403ZM165.926 164.928L91.1788 164.62C50.0683 164.449 15.7621 164.567 14.944 164.879C14.1247 165.192 13.4555 166.537 13.4555 167.868C13.4555 170.273 13.8663 170.287 87.8136 170.287L162.173 170.287L165.926 164.928ZM495.268 155.304C494.87 154.268 494.545 152.928 494.545 152.327C494.545 151.674 462.104 151.234 413.958 151.234L333.369 151.234L338.964 157.188L417.477 157.188C488.581 157.188 495.923 157.01 495.268 155.304ZM176.729 154.938C179.504 152.691 179.496 152.689 167.037 151.896C160.178 151.459 124.023 151.266 86.6907 151.466L18.8142 151.829L18.0533 157.188L96.0028 157.188C170.646 157.188 174.069 157.092 176.729 154.938ZM482.214 144.336C489.997 144.02 490.671 143.79 490.114 141.657C489.515 139.368 487.899 139.327 401.224 139.378L312.946 139.43L317.709 142C322.442 144.553 322.953 144.57 398.089 144.627C439.678 144.658 477.534 144.528 482.214 144.336ZM199.818 139.433L112.123 139.379C19.2762 139.322 22.982 139.123 22.982 144.186C22.982 144.84 56.3558 145.258 106.041 145.226L189.101 145.172L199.818 139.433ZM482.255 126.226L379.242 126.226C322.584 126.226 276.466 126.463 276.756 126.753C277.045 127.043 282.334 128.383 288.509 129.73C299.302 132.086 303.302 132.18 392.352 132.181L484.967 132.181L482.255 126.226ZM226.016 129.343L235.543 126.822L133.728 126.513C39.0652 126.226 31.8084 126.348 30.4246 128.229C29.6054 129.343 28.9361 130.687 28.9361 131.217C28.9361 131.747 71.135 132.109 122.713 132.022C214.167 131.869 216.725 131.803 226.016 129.343ZM476.683 116.7C475.416 114.331 474.189 114.318 256.468 114.318C57.9206 114.318 37.4588 114.493 36.8038 116.202C36.4061 117.238 36.081 118.31 36.081 118.584C36.081 118.858 135.503 119.082 257.019 119.082C477.588 119.082 477.956 119.078 476.683 116.7ZM466.27 101.815L47.077 101.212L43.1711 107.173L469.828 107.173L466.27 101.815ZM460.011 93.9613C460.011 93.5719 459.067 92.3978 457.912 91.3534C456.011 89.6327 437.049 89.4302 256.484 89.2004L57.1561 88.9479L52.9882 94.6698L256.5 94.6698C368.432 94.6698 460.011 94.3507 460.011 93.9613ZM449.294 81.1933C449.294 80.6218 448.314 79.2667 447.116 78.183C445.109 76.367 430.141 76.2122 256.032 76.2122C70.4848 76.2121 67.1041 76.2527 65.893 78.5152C65.2155 79.7822 64.6606 81.0909 64.6606 81.4231C64.6606 81.7566 151.203 82.0745 256.977 82.1305C365.79 82.1877 449.294 81.7816 449.294 81.1933ZM436.195 67.9444C436.195 67.3263 435.004 65.9867 433.548 64.9673C431.183 63.3097 412.429 63.1132 256.587 63.1132L82.2716 63.1132L75.1957 69.0673L255.695 69.0673C368.001 69.0673 436.195 68.6434 436.195 67.9444ZM417.917 51.2051L96.2172 51.2908L89.0723 57.1472L423.512 57.1591L417.917 51.2051ZM404.634 42.861C401.695 38.1061 403.471 38.162 255.602 38.1692L114.079 38.1751L106.935 44.0482L256.154 44.0542C356.035 44.0578 405.129 43.6636 404.634 42.861ZM384.99 31.3613C384.99 31.1684 382.877 29.9323 380.296 28.6141C375.685 26.2622 373.44 26.2193 255.842 26.186C138.866 26.1538 135.981 26.2086 131.632 28.5045L127.178 30.8564L243.283 31.0957C307.14 31.2267 365.147 31.4197 372.189 31.5245C379.23 31.6281 384.99 31.5542 384.99 31.3613ZM358.792 18.5052C358.792 18.2039 355.253 16.8643 350.927 15.5282C343.314 13.1775 340.265 13.0989 256.382 13.0989C172.498 13.0989 169.45 13.1775 161.837 15.5282C157.511 16.8643 153.972 18.2039 153.972 18.5052C153.972 18.8065 200.056 19.053 256.382 19.053C312.707 19.053 358.792 18.8065 358.792 18.5052ZM314.136 4.14522C300.771 1.20986 283.914 -2.9907e-05 256.382 -3.23139e-05C228.85 -3.47208e-05 211.993 1.20985 198.627 4.14521C192.405 5.51227 199.86 5.7147 256.382 5.7147C312.904 5.71471 320.358 5.51228 314.136 4.14522Z" fill="white"/>
</svg>
